<svg 
width="450.057470703125px"
height="122.021240234375px"
xmlns="http://www.w3.org/2000/svg"
viewBox="24.97126464843751 13.9893798828125 450.057470703125 122.021240234375" 
style="background: rgba(0, 0, 0, 0);"
preserveAspectRatio="xMidYMid">
<defs>
<filter 
id="editing-hole"
 x="-100%"
  y="-100%"
   width="300%" 
   height="300%">
<feFlood
flood-color="#000"
result="black"
>
</feFlood>
<feMorphology 
operator="dilate"
radius="2"
in="SourceGraphic"
result="erode">
</feMorphology>
<feGaussianBlur 
in="erode"
stdDeviation="4"
 result="blur">
 </feGaussianBlur>
<feOffset
in="blur"
dx="2"
dy="2"
result="offset"
></feOffset>
<feComposite 
operator="atop"
 in="offset"
 in2="black"
 result="merge"></feComposite>
 <feComposite
operator="in"
in="merge"
 in2="SourceGraphic"
  result="inner-shadow">
  </feComposite></filter></defs>
  <g filter="url(#editing-hole)">
  <g 
  transform="translate(30, 101) scale(1.4)">
  <path d="M27.84-9.86L27.84-9.86L27.84-9.86Q29.06-8.32 29.06-5.34L29.06-5.34L29.06-5.34Q29.06-2.37 26.78-0.54L26.78-0.54L26.78-0.54Q24.51 1.28 20.54 1.28L20.54 1.28L20.54 1.28Q18.24 1.28 14.66 0.77L14.66 0.77L14.66 0.77Q7.62-0.32 5.60-0.32L5.60-0.32L5.60-0.32Q3.58-0.32 2.75-0.22L2.75-0.22L2.75-0.22Q1.92-0.13 0.58 0L0.58 0L8.32-42.24L22.34-42.24L15.94-7.04L15.94-7.04Q16.77-6.91 17.54-6.91L17.54-6.91L19.14-6.91L19.14-6.91Q24.51-6.91 27.84-9.86ZM47.30 1.28L47.30 1.28L47.30 1.28Q33.22 1.28 33.22-11.97L33.22-11.97L33.22-11.97Q33.22-21.38 38.40-27.46L38.40-27.46L38.40-27.46Q43.90-33.92 53.44-33.92L53.44-33.92L53.44-33.92Q60.35-33.92 63.87-30.72L63.87-30.72L63.87-30.72Q67.39-27.52 67.39-20.80L67.39-20.80L67.39-20.80Q67.39-10.56 61.89-4.61L61.89-4.61L61.89-4.61Q56.51 1.28 47.30 1.28ZM48.96-26.56L48.96-26.56L48.96-26.56Q48.19-24.83 47.58-22.24L47.58-22.24L47.58-22.24Q46.98-19.65 46.21-15.55L46.21-15.55L46.21-15.55Q45.44-11.46 45.44-6.40L45.44-6.40L45.44-6.40Q45.44-4.74 45.98-3.65L45.98-3.65L45.98-3.65Q46.53-2.56 48-2.56L48-2.56L48-2.56Q49.47-2.56 50.40-3.26L50.40-3.26L50.40-3.26Q51.33-3.97 52.03-5.63L52.03-5.63L52.03-5.63Q53.31-8.58 54.34-14.05L54.34-14.05L54.34-14.05Q55.36-19.52 55.46-21.89L55.46-21.89L55.46-21.89Q55.55-24.26 55.55-26.02L55.55-26.02L55.55-26.02Q55.55-27.78 55.04-28.93L55.04-28.93L55.04-28.93Q54.53-30.08 53.09-30.08L53.09-30.08L53.09-30.08Q51.65-30.08 50.69-29.18L50.69-29.18L50.69-29.18Q49.73-28.29 48.96-26.56ZM75.71-26.75L75.71-26.75L75.71-26.75Q77.89-29.82 81.18-31.87L81.18-31.87L81.18-31.87Q84.48-33.92 88.51-33.92L88.51-33.92L88.51-33.92Q92.54-33.92 94.46-32.64L94.46-32.64L107.01-33.92L102.66-9.34L102.66-9.34Q100.42 3.20 95.68 8.13L95.68 8.13L95.68 8.13Q91.14 12.80 82.30 12.80L82.30 12.80L82.30 12.80Q75.58 12.80 71.74 10.69L71.74 10.69L71.74 10.69Q67.90 8.58 67.90 5.06L67.90 5.06L67.90 5.06Q67.90 2.43 69.89 0.93L69.89 0.93L69.89 0.93Q71.87-0.58 74.94-0.58L74.94-0.58L74.94-0.58Q77.63-0.58 79.68 0.64L79.68 0.64L79.68 0.64Q80.90 1.28 81.47 2.18L81.47 2.18L81.47 2.18Q80 3.46 80 5.57L80 5.57L80 5.57Q80 8.32 82.56 8.32L82.56 8.32L82.56 8.32Q86.85 8.32 89.28-1.79L89.28-1.79L89.28-1.79Q89.98-4.54 90.56-7.30L90.56-7.30L90.56-7.30Q87.68-3.78 81.15-3.78L81.15-3.78L81.15-3.78Q76.61-3.78 73.98-5.95L73.98-5.95L73.98-5.95Q71.36-8.13 71.36-13.25L71.36-13.25L71.36-13.25Q71.36-16.45 72.45-20.06L72.45-20.06L72.45-20.06Q73.54-23.68 75.71-26.75ZM84.03-13.06L84.03-13.06L84.03-13.06Q84.03-8.70 86.27-8.70L86.27-8.70L86.27-8.70Q87.81-8.70 89.28-10.37L89.28-10.37L89.28-10.37Q90.43-11.71 90.88-13.70L90.88-13.70L94.14-30.14L94.14-30.14Q93.82-30.21 93.50-30.34L93.50-30.34L93.50-30.34Q92.86-30.59 92.03-30.59L92.03-30.59L92.03-30.59Q88.13-30.59 85.82-24.19L85.82-24.19L85.82-24.19Q84.03-19.20 84.03-13.06ZM116.10 0L109.06 0L116.74-42.24L130.50-42.24L140.48-13.18L145.79-42.24L152.90-42.18L145.09 0L130.43 0L121.22-27.97L116.10 0ZM159.94 0L152.58 0L164.16-42.24L177.54-42.24L180.48-18.11L192.38-42.24L203.58-42.24L204.74-10.62L204.74-10.62Q204.99-4.35 208.06-2.43L208.06-2.43L208.06-2.43Q207.36-1.15 205.31 0.06L205.31 0.06L205.31 0.06Q203.26 1.28 200.54 1.28L200.54 1.28L200.54 1.28Q197.82 1.28 196.22 0.51L196.22 0.51L196.22 0.51Q194.62-0.26 193.73-1.54L193.73-1.54L193.73-1.54Q192.13-3.84 192.13-8.26L192.13-8.26L192.13-28.03L179.52 0L171.58 0L167.10-28.74L159.94 0ZM213.60-1.92L213.60-1.92L213.60-1.92Q212.10-3.58 211.42-6.21L211.42-6.21L211.42-6.21Q210.75-8.83 210.75-13.12L210.75-13.12L210.75-13.12Q210.75-17.41 212.22-21.31L212.22-21.31L212.22-21.31Q213.70-25.22 216.38-28.03L216.38-28.03L216.38-28.03Q221.89-33.92 230.98-33.92L230.98-33.92L230.98-33.92Q234.24-33.92 236.61-32.83L236.61-32.83L247.55-33.92L242.82-8.96L242.82-8.96Q242.62-8.19 242.62-6.78L242.62-6.78L242.62-6.78Q242.62-5.38 243.49-4.48L243.49-4.48L243.49-4.48Q244.35-3.58 245.63-3.46L245.63-3.46L245.63-3.46Q244.99-1.28 242.66 0L242.66 0L242.66 0Q240.32 1.28 237.70 1.28L237.70 1.28L237.70 1.28Q235.07 1.28 233.31 0.29L233.31 0.29L233.31 0.29Q231.55-0.70 231.04-2.37L231.04-2.37L231.04-2.37Q230.02-0.77 227.84 0.26L227.84 0.26L227.84 0.26Q225.66 1.28 222.75 1.28L222.75 1.28L222.75 1.28Q219.84 1.28 217.47 0.51L217.47 0.51L217.47 0.51Q215.10-0.26 213.60-1.92ZM227.10-27.90L227.10-27.90L227.10-27.90Q226.37-26.75 225.73-24.80L225.73-24.80L225.73-24.80Q225.09-22.85 224.03-17.63L224.03-17.63L224.03-17.63Q222.98-12.42 222.98-8.70L222.98-8.70L222.98-8.70Q222.98-4.99 223.55-3.90L223.55-3.90L223.55-3.90Q224.13-2.82 225.15-2.82L225.15-2.82L225.15-2.82Q227.20-2.82 228.70-4.77L228.70-4.77L228.70-4.77Q230.21-6.72 230.78-10.18L230.78-10.18L234.18-28.93L234.18-28.93Q232.83-30.08 231.26-30.08L231.26-30.08L231.26-30.08Q229.70-30.08 228.77-29.57L228.77-29.57L228.77-29.57Q227.84-29.06 227.10-27.90ZM263.33 0.64L263.33 0.64L263.33 0.64Q260.29 0 258.72-0.29L258.72-0.29L258.72-0.29Q257.15-0.58 255.33-0.58L255.33-0.58L255.33-0.58Q253.50-0.58 251.71 0.06L251.71 0.06L251.71 0.06Q250.75-0.51 250.14-1.66L250.14-1.66L250.14-1.66Q249.54-2.82 249.54-4.61L249.54-4.61L249.54-4.61Q249.54-8.38 253.38-11.26L253.38-11.26L269.63-22.98L269.63-22.98Q265.09-24.26 260.96-24.26L260.96-24.26L260.96-24.26Q256.83-24.26 255.36-21.44L255.36-21.44L255.36-21.44Q253.18-24 253.18-28.03L253.18-28.03L253.18-28.03Q253.18-30.72 255.14-32.48L255.14-32.48L255.14-32.48Q257.09-34.24 261.18-34.24L261.18-34.24L261.18-34.24Q263.49-34.24 265.57-33.95L265.57-33.95L265.57-33.95Q267.65-33.66 269.50-33.41L269.50-33.41L272.96-32.90L272.96-32.90Q274.62-32.64 276.32-32.64L276.32-32.64L276.32-32.64Q278.02-32.64 279.30-33.34L279.30-33.34L279.30-33.34Q280.96-31.81 280.96-29.70L280.96-29.70L280.96-29.70Q280.96-26.37 276.86-22.91L276.86-22.91L260.67-10.82L260.67-10.82Q265.66-9.34 268.22-9.34L268.22-9.34L268.22-9.34Q273.60-9.34 275.90-11.90L275.90-11.90L275.90-11.90Q277.70-9.86 277.70-6.30L277.70-6.30L277.70-6.30Q277.70-2.75 275.39-0.74L275.39-0.74L275.39-0.74Q273.09 1.28 268.93 1.28L268.93 1.28L268.93 1.28Q266.37 1.28 263.33 0.64ZM309.18-10.82L309.18-10.82L309.18-10.82Q310.78-9.73 310.78-7.33L310.78-7.33L310.78-7.33Q310.78-4.93 309.57-3.39L309.57-3.39L309.57-3.39Q308.35-1.86 306.37-0.83L306.37-0.83L306.37-0.83Q302.27 1.28 297.86 1.28L297.86 1.28L297.86 1.28Q293.44 1.28 290.85 0.32L290.85 0.32L290.85 0.32Q288.26-0.64 286.53-2.43L286.53-2.43L286.53-2.43Q283.14-5.82 283.14-12.03L283.14-12.03L283.14-12.03Q283.14-21.70 288.38-27.58L288.38-27.58L288.38-27.58Q294.02-33.92 303.81-33.92L303.81-33.92L303.81-33.92Q309.89-33.92 312.90-31.36L312.90-31.36L312.90-31.36Q315.14-29.44 315.14-26.30L315.14-26.30L315.14-26.30Q315.14-15.04 295.68-15.04L295.68-15.04L295.68-15.04Q295.42-13.38 295.42-11.97L295.42-11.97L295.42-11.97Q295.42-9.02 296.74-7.90L296.74-7.90L296.74-7.90Q298.05-6.78 300.48-6.78L300.48-6.78L300.48-6.78Q302.91-6.78 305.50-7.90L305.50-7.90L305.50-7.90Q308.10-9.02 309.18-10.82ZM296.13-17.79L296.13-17.79L296.13-17.79Q300.67-17.79 303.30-20.61L303.30-20.61L303.30-20.61Q305.92-23.30 305.92-27.58L305.92-27.58L305.92-27.58Q305.92-29.06 305.38-29.86L305.38-29.86L305.38-29.86Q304.83-30.66 303.74-30.66L303.74-30.66L303.74-30.66Q302.66-30.66 301.73-30.24L301.73-30.24L301.73-30.24Q300.80-29.82 299.84-28.42L299.84-28.42L299.84-28.42Q297.47-25.22 296.13-17.79Z"
  fill="#ccc"></path></g></g><style>text {
  font-size: 90px;
  font-family: Arial Black;
  dominant-baseline: central;
  text-anchor: middle;
}</style></svg>