<svg width="7046" height="1579" viewBox="0 0 7046 1579" fill="none" xmlns="http://www.w3.org/2000/svg">
<path d="M38 565.278C63.321 649.657 83.6397 755.136 177.569 803.954C280.148 857.268 449.285 787.607 544.583 748.524C693.12 687.608 828.62 577.206 853.998 428.333C867.25 350.591 855.004 269.344 834.059 193.57C821.228 147.147 801.322 70.266 750.614 42.2785C712.127 21.0369 681.809 84.7215 672.337 105.534C627.25 204.598 635.963 321.713 645.752 425.725C657.59 551.492 681.607 681.492 650.183 806.563C624.669 908.112 567.807 997.935 510.614 1087.63C491.121 1118.2 433.065 1173.17 458.184 1210.88C477.328 1239.62 584.262 1234.35 613.26 1234.35C802.381 1234.35 1009.24 1220.22 1189.26 1165.88C1315.75 1127.7 1425.48 1005.07 1424.09 884.165C1423.16 803.233 1372.17 751.631 1290.43 717.222C1234.16 693.536 1188.42 730.844 1152.34 767.435C1022.08 899.533 1075.49 1123.47 1254.24 1197.18C1341.64 1233.22 1460.12 1226.79 1554.06 1220.01C1656.29 1212.62 1758.65 1198.11 1860.52 1187.4C1987.7 1174.03 2093.31 1181.67 2143.35 1062.85C2177.48 981.789 2142.12 852.45 2065.07 796.781C2019.99 764.21 1950.19 735.776 1892.27 757.002C1799.9 790.852 1765.95 900.15 1770.06 980.026C1773.48 1046.62 1834.35 1120.72 1920.33 1100.99C1985.76 1085.99 2045.71 1007.95 2095.35 969.919C2123.77 948.144 2148.07 922.818 2143.72 970.245C2133.11 1085.75 2076.47 1183.02 1977.93 1260.11C1802.26 1397.54 1556.36 1456.31 1331.04 1494.87C1320.07 1496.75 1115.16 1517.26 1118.37 1512.81C1154.46 1462.72 1184.44 1409.91 1247.6 1380.1C1288.06 1361.01 1318.24 1364.48 1355.41 1384.99C1419.16 1420.18 1480.98 1463.51 1554.8 1480.85C1662.88 1506.26 1767.92 1481.71 1867.53 1444.01C1991.92 1396.94 2111.6 1340.61 2210.92 1258.16C2367.53 1128.13 2392.68 901.824 2404.02 721.461C2409.93 627.644 2433.37 526.164 2413.26 432.898C2407.05 404.143 2359.6 261.814 2298.79 282.911C2251.96 299.159 2282.57 371.357 2295.1 395.401C2350.54 501.786 2443.78 589.379 2495.96 697.333C2591.81 895.593 2519.78 1132.16 2380.39 1298.26C2335.66 1351.57 2286.21 1401.64 2242.67 1455.75C2233.04 1467.71 2222.93 1480.24 2218.3 1494.55C2214.57 1506.07 2241.87 1482.64 2253.38 1476.29C2329.42 1434.32 2390.67 1381.92 2436.52 1312.93C2546.74 1147.07 2604.04 954.119 2652.52 768.087C2684.82 644.139 2702.86 521.742 2712.7 395.075C2713.6 383.458 2711.64 356.812 2716.39 344.21C2723.44 325.547 2721.25 383.321 2723.41 402.901C2743.22 582.201 2746.89 762.495 2770.67 941.551C2791.55 1098.79 2815.49 1256.48 2839.72 1413.36C2840.18 1416.38 2860.27 1546.02 2875.9 1540.85C2889.74 1536.27 2891.62 1518.69 2898.05 1506.94C2925.07 1457.6 2948.36 1406.64 2970.05 1355.32C3076.05 1104.52 3148.65 834.957 3194.18 570.495C3206.37 499.665 3204.45 426.871 3220.02 356.6C3221.3 350.824 3218.52 333.729 3221.5 338.993C3243.03 377.019 3260.44 419.419 3281.31 458.331C3306.67 505.595 3334.49 573.702 3407.59 563.974C3445.6 558.916 3479.31 527.517 3492.51 496.806C3507.54 461.838 3486.9 370.961 3431.22 368.338C3365.43 365.24 3403.38 522.709 3403.16 543.758C3401.15 738.322 3277.78 893.594 3119.59 1019.15C3060.89 1065.75 2926.4 1136.4 2932.76 1220.66C2938.72 1299.59 3047.15 1324.04 3118.85 1334.78C3404.41 1377.55 3570.62 1158.55 3671.96 957.202C3771.53 759.372 3811.8 530.99 3793.07 314.864C3791.78 299.997 3789.81 285.186 3786.79 270.52C3786.17 267.509 3787.43 276.617 3787.9 279.65C3802.84 376.783 3820.17 472.763 3821.87 571.147C3826.05 813.73 3742.32 1046.03 3711.84 1285.22C3710.34 1296.93 3706.26 1383.6 3706.67 1383.04C3763.16 1304.95 3795.26 1200.23 3828.51 1113.71C3931.66 845.339 3996.15 567.308 4118.73 304.431C4135.12 269.28 4131.65 296.25 4133.5 316.821C4138.75 375.388 4151.13 433.212 4163.04 490.937C4197.48 657.903 4227.75 827.553 4293 987.852C4331.13 1081.51 4382.04 1170.43 4457.68 1244.79C4468.43 1255.36 4491.63 1286.23 4510.85 1287.17C4547.28 1288.96 4582.38 1293.51 4619.4 1293.04C4681.78 1292.26 4744.75 1284.36 4802.54 1262.39C4907.99 1222.31 4971.78 1086.34 5000.45 996.329C5026.24 915.347 5024.51 807.405 4980.51 731.243C4955.6 688.127 4909.67 637.129 4848.33 656.249C4752.11 686.237 4713.27 796.307 4697.68 875.361C4678.5 972.631 4686.91 1094.11 4751.59 1178.92C4778.4 1214.09 4842.21 1159.89 4863.46 1144.03C4962.48 1070.2 5008.98 982.384 5028.51 869.492C5037.15 819.546 5036.13 730.541 5035.89 865.905C5035.68 989.254 5028.08 1123.46 5070.97 1242.83C5087.92 1290 5118.25 1297.28 5164.76 1299.24C5205.96 1300.97 5268.1 1315.17 5305.06 1289.78C5355.44 1255.19 5383.68 1181.3 5401.43 1129.69C5429.85 1047.07 5430.37 957.245 5437.62 871.774C5439.21 852.979 5430.96 756.521 5467.16 753.741C5575.7 745.406 5708.61 761.222 5812.38 788.629C5911.46 814.795 5816.41 929.689 5782.11 967.962C5678.84 1083.18 5541.32 1171.21 5438.72 1286.2C5428.23 1297.96 5429.68 1299.31 5446.11 1298.59C5554 1293.82 5670.58 1286.95 5773.25 1255.22C5809.74 1243.94 5845.91 1230.48 5883.28 1219.35C6023.36 1177.64 6172.51 1166.06 6317.86 1146.32C6348.78 1142.12 6377.73 1140.45 6409.06 1140.45C6431.76 1140.45 6454.71 1139.52 6477.37 1140.77C6522.94 1143.29 6567.59 1171.22 6610.66 1183.16C6730.71 1216.45 6892.22 1151.7 6973.61 1074.91C7111.6 944.712 6797.18 832.708 6685.24 843.733C6567.63 855.318 6488.8 942.181 6433.8 1026.33C6388.3 1095.94 6327.93 1208.34 6347.4 1292.72C6368.83 1385.6 6492.78 1396.74 6578.54 1405.21C6711.9 1418.38 6832.57 1400.27 6963.27 1386.95" stroke="black" stroke-width="75" stroke-linecap="round"/>
<path d="M38 565.278C63.321 649.657 83.6397 755.136 177.569 803.954C280.148 857.268 449.285 787.607 544.583 748.524C693.12 687.608 828.62 577.206 853.998 428.333C867.25 350.591 855.004 269.344 834.059 193.57C821.228 147.147 801.322 70.266 750.614 42.2785C712.127 21.0369 681.809 84.7215 672.337 105.534C627.25 204.598 635.963 321.713 645.752 425.725C657.59 551.492 681.607 681.492 650.183 806.563C624.669 908.112 567.807 997.935 510.614 1087.63C491.121 1118.2 433.065 1173.17 458.184 1210.88C477.328 1239.62 584.262 1234.35 613.26 1234.35C802.381 1234.35 1009.24 1220.22 1189.26 1165.88C1315.75 1127.7 1425.48 1005.07 1424.09 884.165C1423.16 803.233 1372.17 751.631 1290.43 717.222C1234.16 693.536 1188.42 730.844 1152.34 767.435C1022.08 899.533 1075.49 1123.47 1254.24 1197.18C1341.64 1233.22 1460.12 1226.79 1554.06 1220.01C1656.29 1212.62 1758.65 1198.11 1860.52 1187.4C1987.7 1174.03 2093.31 1181.67 2143.35 1062.85C2177.48 981.789 2142.12 852.45 2065.07 796.781C2019.99 764.21 1950.19 735.776 1892.27 757.002C1799.9 790.852 1765.95 900.15 1770.06 980.026C1773.48 1046.62 1834.35 1120.72 1920.33 1100.99C1985.76 1085.99 2045.71 1007.95 2095.35 969.919C2123.77 948.144 2148.07 922.818 2143.72 970.245C2133.11 1085.75 2076.47 1183.02 1977.93 1260.11C1802.26 1397.54 1556.36 1456.31 1331.04 1494.87C1320.07 1496.75 1115.16 1517.26 1118.37 1512.81C1154.46 1462.72 1184.44 1409.91 1247.6 1380.1C1288.06 1361.01 1318.24 1364.48 1355.41 1384.99C1419.16 1420.18 1480.98 1463.51 1554.8 1480.85C1662.88 1506.26 1767.92 1481.71 1867.53 1444.01C1991.92 1396.94 2111.6 1340.61 2210.92 1258.16C2367.53 1128.13 2392.68 901.824 2404.02 721.461C2409.93 627.644 2433.37 526.164 2413.26 432.898C2407.05 404.143 2359.6 261.814 2298.79 282.911C2251.96 299.159 2282.57 371.357 2295.1 395.401C2350.54 501.786 2443.78 589.379 2495.96 697.333C2591.81 895.593 2519.78 1132.16 2380.39 1298.26C2335.66 1351.57 2286.21 1401.64 2242.67 1455.75C2233.04 1467.71 2222.93 1480.24 2218.3 1494.55C2214.57 1506.07 2241.87 1482.64 2253.38 1476.29C2329.42 1434.32 2390.67 1381.92 2436.52 1312.93C2546.74 1147.07 2604.04 954.119 2652.52 768.087C2684.82 644.139 2702.86 521.742 2712.7 395.075C2713.6 383.458 2711.64 356.812 2716.39 344.21C2723.44 325.547 2721.25 383.321 2723.41 402.901C2743.22 582.201 2746.89 762.495 2770.67 941.551C2791.55 1098.79 2815.49 1256.48 2839.72 1413.36C2840.18 1416.38 2860.27 1546.02 2875.9 1540.85C2889.74 1536.27 2891.62 1518.69 2898.05 1506.94C2925.07 1457.6 2948.36 1406.64 2970.05 1355.32C3076.05 1104.52 3148.65 834.957 3194.18 570.495C3206.37 499.665 3204.45 426.871 3220.02 356.6C3221.3 350.824 3218.52 333.729 3221.5 338.993C3243.03 377.019 3260.44 419.419 3281.31 458.331C3306.67 505.595 3334.49 573.702 3407.59 563.974C3445.6 558.916 3479.31 527.517 3492.51 496.806C3507.54 461.838 3486.9 370.961 3431.22 368.338C3365.43 365.24 3403.38 522.709 3403.16 543.758C3401.15 738.322 3277.78 893.594 3119.59 1019.15C3060.89 1065.75 2926.4 1136.4 2932.76 1220.66C2938.72 1299.59 3047.15 1324.04 3118.85 1334.78C3404.41 1377.55 3570.62 1158.55 3671.96 957.202C3771.53 759.372 3811.8 530.99 3793.07 314.864C3791.78 299.997 3789.81 285.186 3786.79 270.52C3786.17 267.509 3787.43 276.617 3787.9 279.65C3802.84 376.783 3820.17 472.763 3821.87 571.147C3826.05 813.73 3742.32 1046.03 3711.84 1285.22C3710.34 1296.93 3706.26 1383.6 3706.67 1383.04C3763.16 1304.95 3795.26 1200.23 3828.51 1113.71C3931.66 845.339 3996.15 567.308 4118.73 304.431C4135.12 269.28 4131.65 296.25 4133.5 316.821C4138.75 375.388 4151.13 433.212 4163.04 490.937C4197.48 657.903 4227.75 827.553 4293 987.852C4331.13 1081.51 4382.04 1170.43 4457.68 1244.79C4468.43 1255.36 4491.63 1286.23 4510.85 1287.17C4547.28 1288.96 4582.38 1293.51 4619.4 1293.04C4681.78 1292.26 4744.75 1284.36 4802.54 1262.39C4907.99 1222.31 4971.78 1086.34 5000.45 996.329C5026.24 915.347 5024.51 807.405 4980.51 731.243C4955.6 688.127 4909.67 637.129 4848.33 656.249C4752.11 686.237 4713.27 796.307 4697.68 875.361C4678.5 972.631 4686.91 1094.11 4751.59 1178.92C4778.4 1214.09 4842.21 1159.89 4863.46 1144.03C4962.48 1070.2 5008.98 982.384 5028.51 869.492C5037.15 819.546 5036.13 730.541 5035.89 865.905C5035.68 989.254 5028.08 1123.46 5070.97 1242.83C5087.92 1290 5118.25 1297.28 5164.76 1299.24C5205.96 1300.97 5268.1 1315.17 5305.06 1289.78C5355.44 1255.19 5383.68 1181.3 5401.43 1129.69C5429.85 1047.07 5430.37 957.245 5437.62 871.774C5439.21 852.979 5430.96 756.521 5467.16 753.741C5575.7 745.406 5708.61 761.222 5812.38 788.629C5911.46 814.795 5816.41 929.689 5782.11 967.962C5678.84 1083.18 5541.32 1171.21 5438.72 1286.2C5428.23 1297.96 5429.68 1299.31 5446.11 1298.59C5554 1293.82 5670.58 1286.95 5773.25 1255.22C5809.74 1243.94 5845.91 1230.48 5883.28 1219.35C6023.36 1177.64 6172.51 1166.06 6317.86 1146.32C6348.78 1142.12 6377.73 1140.45 6409.06 1140.45C6431.76 1140.45 6454.71 1139.52 6477.37 1140.77C6522.94 1143.29 6567.59 1171.22 6610.66 1183.16C6730.71 1216.45 6892.22 1151.7 6973.61 1074.91C7111.6 944.712 6797.18 832.708 6685.24 843.733C6567.63 855.318 6488.8 942.181 6433.8 1026.33C6388.3 1095.94 6327.93 1208.34 6347.4 1292.72C6368.83 1385.6 6492.78 1396.74 6578.54 1405.21C6711.9 1418.38 6832.57 1400.27 6963.27 1386.95" stroke="black" stroke-opacity="0.2" stroke-width="75" stroke-linecap="round"/>
</svg>
